<?xml version="1.0" encoding="UTF-8"?>
<svg version="1.1" xmlns="http://www.w3.org/2000/svg" width="453" height="377">
<path d="M0 0 C28.56522521 15.65728494 48.06621058 47.56670546 59.70703125 77 C60.87105469 75.96552734 60.87105469 75.96552734 62.05859375 74.91015625 C72.43139895 65.82663546 83.12798798 58.5126742 95.58203125 52.5625 C96.27135742 52.2322583 96.96068359 51.9020166 97.67089844 51.56176758 C105.65960051 47.88761849 115.26320498 44.64640388 123.91015625 47.8046875 C132.22082179 52.40410164 136.24463418 60.72228447 138.8828125 69.52734375 C142.48354871 84.69821812 142.80688698 100.64986846 137.09375 115.3984375 C135.52737216 118.82338992 135.52737216 118.82338992 135.70703125 122 C136.69058594 121.62488281 137.67414063 121.24976563 138.6875 120.86328125 C146.8989245 117.80770413 155.12057176 115.22838338 163.64453125 113.1875 C164.92009888 112.87776245 164.92009888 112.87776245 166.22143555 112.56176758 C181.26299864 109.08231924 200.04501078 107.28556619 214.64453125 113.1875 C218.3085819 116.4074233 219.48372557 119.77392146 219.95703125 124.4921875 C220.66640832 156.50282762 209.19665188 185.53684278 187.70703125 209 C186.96710938 209.81082031 186.2271875 210.62164062 185.46484375 211.45703125 C163.20020196 234.74111635 132.00827087 247.87985488 101.08203125 254.8125 C99.7978833 255.10483521 99.7978833 255.10483521 98.48779297 255.40307617 C81.51100933 258.97572708 64.45308061 259.29909302 47.16674805 259.20581055 C43.59091259 259.18722126 40.0153325 259.1853038 36.43945312 259.18554688 C34.16275816 259.18064208 31.88606494 259.17481835 29.609375 259.16796875 C28.00811012 259.16629951 28.00811012 259.16629951 26.37449646 259.16459656 C24.90509361 259.15502678 24.90509361 259.15502678 23.40600586 259.14526367 C22.54398056 259.14145187 21.68195526 259.13764008 20.79380798 259.13371277 C18.70703125 259 18.70703125 259 16.70703125 258 C5.40665296 256.43322091 -6.20509308 256.77106226 -17.58612061 256.61212158 C-55.05029368 256.06443718 -55.05029368 256.06443718 -73.29296875 254 C-74.17259277 253.90493164 -75.0522168 253.80986328 -75.95849609 253.71191406 C-113.32395974 249.52588416 -149.85495121 237.36605709 -180.29296875 215 C-181.14375 214.39671875 -181.99453125 213.7934375 -182.87109375 213.171875 C-186.96768257 210.22118515 -186.96768257 210.22118515 -188.29296875 209 C-188.29296875 208.34 -188.29296875 207.68 -188.29296875 207 C-188.85757813 206.75894531 -189.4221875 206.51789063 -190.00390625 206.26953125 C-209.21261539 195.61623693 -223.72616372 166.88363312 -229.50708008 146.7800293 C-232.24498911 136.81654875 -234.40492474 127.44488993 -233.29296875 117 C-230.56298027 112.94401711 -227.85913541 111.46312416 -223.29296875 110 C-220.09159167 109.55926636 -216.89511916 109.38937956 -213.66796875 109.25 C-212.73936035 109.20979736 -211.81075195 109.16959473 -210.85400391 109.12817383 C-191.82911479 108.51232992 -172.30847475 111.88676917 -154.29296875 118 C-154.64230469 117.03578125 -154.99164063 116.0715625 -155.3515625 115.078125 C-155.81129961 113.80211997 -156.27092938 112.52607626 -156.73046875 111.25 C-156.96056641 110.61578125 -157.19066406 109.9815625 -157.42773438 109.328125 C-163.73708843 91.77166154 -161.91872414 72.89462935 -154.29296875 56 C-150.69609134 49.77998547 -145.25617615 43.32106913 -138.29296875 41 C-116.47571189 39.71354322 -95.41768394 56.84237376 -79.59765625 70.08984375 C-75.89004432 73.61896215 -75.89004432 73.61896215 -71.29296875 75 C-70.98746094 74.06542969 -70.68195313 73.13085938 -70.3671875 72.16796875 C-61.33498296 45.78003055 -41.19070138 13.95118666 -16.23046875 -0.125 C-10.31200099 -2.77492238 -5.90160563 -2.57378371 0 0 Z " fill="#82CBF1" transform="translate(233.29296875,88)"/>
<path d="M0 0 C3.12748012 1.03310154 5.02111364 2.49318417 7.5390625 4.609375 C8.41046875 5.33640625 9.281875 6.0634375 10.1796875 6.8125 C10.97890625 7.48796875 11.778125 8.1634375 12.6015625 8.859375 C13.46007812 9.53226563 13.46007812 9.53226563 14.3359375 10.21875 C18.66825768 13.61938842 22.08094915 17.66061072 25.6015625 21.859375 C26.2925 22.65085937 26.9834375 23.44234375 27.6953125 24.2578125 C53.6387087 54.67735805 64.38782246 93.9851761 61.39941406 133.53466797 C57.612984 169.3200042 40.74926005 203.75206792 13.50390625 227.44140625 C9.17758249 230.66616092 6.04544051 231.41298971 0.6015625 230.859375 C-6.1346987 227.93609184 -11.12113629 222.86726444 -16.3984375 217.859375 C-17.21570313 217.1065625 -18.03296875 216.35375 -18.875 215.578125 C-45.10433524 190.59780573 -58.03340012 154.86183026 -59.37695312 119.17211914 C-60.14149566 81.94351129 -48.34092085 48.44524906 -24.3984375 19.859375 C-23.81191406 19.14910156 -23.22539062 18.43882813 -22.62109375 17.70703125 C-18.58832975 12.94270008 -14.23588731 8.79994063 -9.3984375 4.859375 C-8.77582031 4.33730469 -8.15320313 3.81523438 -7.51171875 3.27734375 C-3.11745396 -0.18278232 -3.11745396 -0.18278232 0 0 Z " fill="#2A9D8F" transform="translate(226.3984375,100.140625)"/>
<path d="M0 0 C5.26436404 10.52872808 -1.41032251 29.74042973 -4.91821289 40.29101562 C-10.22418605 54.99745038 -19.10534231 66.97921024 -30 78 C-30.77730469 78.84949219 -31.55460938 79.69898438 -32.35546875 80.57421875 C-60.55467351 110.66281746 -105.38900943 121.25422838 -145.07421875 122.875 C-146.36972656 122.91625 -147.66523438 122.9575 -149 123 C-150.20269531 123.04125 -151.40539062 123.0825 -152.64453125 123.125 C-163.50391407 123.31324499 -174.21610339 122.17172233 -185 121 C-181.97307249 117.44268177 -178.93371514 113.91830468 -175.75 110.5 C-166.50708137 99.85848184 -159.92460278 87.52455312 -153.54296875 75.04296875 C-152.90560791 73.79652588 -152.90560791 73.79652588 -152.25537109 72.52490234 C-151.41077674 70.82618689 -150.59630209 69.11219619 -149.81103516 67.38525391 C-136.41644841 38.48287002 -90.60367636 19.34570439 -62.50390625 8.9375 C-44.17324019 2.37698418 -19.48567068 -5.52684477 0 0 Z " fill="#264653" transform="translate(438,212)"/>
<path d="M0 0 C3.09100296 3.83935105 4.39646868 7.88761117 5.9765625 12.515625 C11.61500283 28.06645961 19.12854108 41.68318437 29.2265625 54.765625 C30.00257813 55.77753906 30.77859375 56.78945313 31.578125 57.83203125 C35.61332301 62.92802873 39.7494329 67.41388977 44.79296875 71.5234375 C45.26605469 71.93335938 45.73914063 72.34328125 46.2265625 72.765625 C46.2265625 73.095625 46.2265625 73.425625 46.2265625 73.765625 C-5.97845718 74.97796022 -64.69981057 65.5784118 -104.5859375 28.828125 C-106.33176845 27.15787115 -108.06228453 25.47138851 -109.7734375 23.765625 C-110.629375 22.91613281 -111.4853125 22.06664062 -112.3671875 21.19140625 C-129.12224365 4.30035126 -144.20605534 -19.14667145 -144.8671875 -43.71875 C-144.83625 -44.54890625 -144.8053125 -45.3790625 -144.7734375 -46.234375 C-98.33573803 -53.14949634 -35.67908842 -28.74427968 0 0 Z " fill="#264653" transform="translate(158.7734375,257.234375)"/>
<path d="M0 0 C20.7366874 3.14089891 38.60309875 19.3962255 53.3125 33.125 C54.08207031 33.73859375 54.85164063 34.3521875 55.64453125 34.984375 C57.3125 37.125 57.3125 37.125 57.30078125 40.09375 C56.96626953 41.84171875 56.96626953 41.84171875 56.625 43.625 C56.39912933 44.97017789 56.18076072 46.31663066 55.96875 47.6640625 C55.79859375 48.74349121 55.79859375 48.74349121 55.625 49.84472656 C53.43097751 65.85423441 54.27966929 82.15275868 56.3125 98.125 C55.54550781 97.67511719 54.77851563 97.22523438 53.98828125 96.76171875 C38.32029 87.68119885 22.5755369 79.2457251 5.6328125 72.78125 C4.9013501 72.49934814 4.1698877 72.21744629 3.41625977 71.92700195 C2.04514687 71.40430196 0.66811074 70.89680628 -0.71508789 70.40698242 C-3.59568054 69.31949211 -5.43214437 68.45836404 -7.32421875 65.98828125 C-14.81203656 47.81153392 -18.24469879 29.01931034 -10.48046875 10.19921875 C-5.68722885 0.19278742 -5.68722885 0.19278742 0 0 Z " fill="#E8C36A" transform="translate(100.6875,142.875)"/>
<path d="M0 0 C7.60559848 9.23536958 9.02388635 24.52686256 8 36 C6.42309559 48.15072079 3.67527643 60.11639843 -4 70 C-6.85546875 71.765625 -6.85546875 71.765625 -10.1875 73.25 C-11.4463783 73.84002614 -12.70278992 74.4353362 -13.95703125 75.03515625 C-14.61654785 75.34984863 -15.27606445 75.66454102 -15.95556641 75.98876953 C-26.60006513 81.25381774 -36.42136895 87.72377014 -45.73583984 95.06518555 C-49.04444511 97.65421013 -51.93884047 99.69794885 -56 101 C-55.7834375 99.79988281 -55.566875 98.59976563 -55.34375 97.36328125 C-51.79635083 76.63224685 -51.39170697 54.89724716 -56.68017578 34.35839844 C-56.78571777 33.58012695 -56.89125977 32.80185547 -57 32 C-54.87109375 29.484375 -54.87109375 29.484375 -52 27 C-51.20722656 26.22140625 -50.41445313 25.4428125 -49.59765625 24.640625 C-39.0352671 14.68040595 -15.34002915 -5.34004299 0 0 Z " fill="#E8C36A" transform="translate(353,149)"/>
<path d="M0 0 C0.33 0 0.66 0 1 0 C1 11.55 1 23.1 1 35 C0.67 35 0.34 35 0 35 C-1.71108366 22.89079256 -2.16270274 12.06122681 0 0 Z " fill="#8AD7F9" transform="translate(156,196)"/>
<path d="M0 0 C4.05819183 0.65503282 7.53971282 1.94559121 11.3125 3.5625 C12.38113281 4.01753906 13.44976562 4.47257812 14.55078125 4.94140625 C15.76314453 5.46541016 15.76314453 5.46541016 17 6 C17 6.66 17 7.32 17 8 C18.32 8.66 19.64 9.32 21 10 C16.18080529 9.32512263 12.08116134 7.42034091 7.6875 5.4375 C6.94693359 5.10814453 6.20636719 4.77878906 5.44335938 4.43945312 C3.62688438 3.63082877 1.81316069 2.81602884 0 2 C0 1.34 0 0.68 0 0 Z " fill="#7FC5E9" transform="translate(83,319)"/>
<path d="M0 0 C1.69157394 0.13918537 3.38630373 0.2435836 5.08203125 0.31640625 C6.01337891 0.35830078 6.94472656 0.40019531 7.90429688 0.44335938 C8.86400391 0.48267578 9.82371094 0.52199219 10.8125 0.5625 C11.79154297 0.60568359 12.77058594 0.64886719 13.77929688 0.69335938 C16.18607027 0.7990226 18.59293983 0.90112327 21 1 C21 1.33 21 1.66 21 2 C16.70834802 2.02935775 12.41672236 2.04691802 8.125 2.0625 C6.92101562 2.07087891 5.71703125 2.07925781 4.4765625 2.08789062 C-2.41719146 2.10662365 -9.15920263 1.87608826 -16 1 C-16 0.67 -16 0.34 -16 0 C-14.27185839 -0.19672365 -12.54240803 -0.38196799 -10.8125 -0.5625 C-9.84957031 -0.66691406 -8.88664063 -0.77132813 -7.89453125 -0.87890625 C-5.01673998 -0.99929968 -2.81017154 -0.56203431 0 0 Z " fill="#8CDAFB" transform="translate(184,331)"/>
<path d="M0 0 C2.39829117 0.54019762 4.65807395 1.23528945 7 2 C3.06830336 4.62113109 1.39689982 3.88205685 -3.1875 3.125 C-4.45980469 2.92132813 -5.73210937 2.71765625 -7.04296875 2.5078125 C-8.01878906 2.34023437 -8.99460937 2.17265625 -10 2 C-6.25405125 -0.49729916 -4.44844343 -0.2965629 0 0 Z " fill="#7DC0E2" transform="translate(102,129)"/>
<path d="M0 0 C3.62237366 0.88111792 4.7970811 1.67812864 6.8125 4.875 C8.76148808 10.03215385 8.24025389 15.58093996 8 21 C7.67 21 7.34 21 7 21 C6.67 16.38 6.34 11.76 6 7 C5.34 7 4.68 7 4 7 C2.02 3.535 2.02 3.535 0 0 Z " fill="#78B7D7" transform="translate(445,201)"/>
<path d="M0 0 C2 1 2 1 2 1 Z " fill="#7BB9D7" transform="translate(319,346)"/>
<path d="M0 0 C2 1 2 1 2 1 Z " fill="#80C0E1" transform="translate(229,345)"/>
<path d="M0 0 C2 1 2 1 2 1 Z " fill="#7EBDDE" transform="translate(196,345)"/>
<path d="M0 0 C2 1 2 1 2 1 Z " fill="#7AB9DA" transform="translate(123,336)"/>
<path d="" fill="#84C7EA" transform="translate(0,0)"/>
<path d="" fill="#80C2E2" transform="translate(0,0)"/>
<path d="" fill="#486876" transform="translate(0,0)"/>
<path d="" fill="#4D6B79" transform="translate(0,0)"/>
<path d="" fill="#4F6F7E" transform="translate(0,0)"/>
<path d="" fill="#57798B" transform="translate(0,0)"/>
<path d="" fill="#7AB8D9" transform="translate(0,0)"/>
<path d="" fill="#7AB7D8" transform="translate(0,0)"/>
<path d="" fill="#7FBFE1" transform="translate(0,0)"/>
<path d="" fill="#7BBDDF" transform="translate(0,0)"/>
<path d="" fill="#7CBCDF" transform="translate(0,0)"/>
<path d="" fill="#7EBDDF" transform="translate(0,0)"/>
<path d="" fill="#7EBBDF" transform="translate(0,0)"/>
<path d="" fill="#5D8699" transform="translate(0,0)"/>
<path d="" fill="#7EBCDE" transform="translate(0,0)"/>
<path d="" fill="#7BBADF" transform="translate(0,0)"/>
<path d="" fill="#7BB9D8" transform="translate(0,0)"/>
<path d="" fill="#7AB6D4" transform="translate(0,0)"/>
<path d="" fill="#7DBBDD" transform="translate(0,0)"/>
<path d="" fill="#608B9F" transform="translate(0,0)"/>
<path d="" fill="#77B4D4" transform="translate(0,0)"/>
<path d="" fill="#6390A3" transform="translate(0,0)"/>
<path d="" fill="#7BB8D9" transform="translate(0,0)"/>
<path d="" fill="#75AEC9" transform="translate(0,0)"/>
<path d="" fill="#79B6D7" transform="translate(0,0)"/>
<path d="" fill="#79B4D5" transform="translate(0,0)"/>
<path d="" fill="#7AB7D5" transform="translate(0,0)"/>
<path d="" fill="#7AB8D9" transform="translate(0,0)"/>
<path d="" fill="#7BB5D8" transform="translate(0,0)"/>
<path d="" fill="#7DBAD9" transform="translate(0,0)"/>
<path d="" fill="#7AB6D7" transform="translate(0,0)"/>
<path d="" fill="#79B5D6" transform="translate(0,0)"/>
<path d="" fill="#7BB8D7" transform="translate(0,0)"/>
<path d="" fill="#7DB9DB" transform="translate(0,0)"/>
<path d="" fill="#79B8D7" transform="translate(0,0)"/>
<path d="" fill="#7CBCDB" transform="translate(0,0)"/>
<path d="" fill="#79B8D8" transform="translate(0,0)"/>
<path d="" fill="#7DB9DA" transform="translate(0,0)"/>
<path d="" fill="#7CB9DD" transform="translate(0,0)"/>
<path d="" fill="#7AB7D8" transform="translate(0,0)"/>
<path d="" fill="#7EB7D4" transform="translate(0,0)"/>
<path d="" fill="#85C8EA" transform="translate(0,0)"/>
<path d="" fill="#86C8E9" transform="translate(0,0)"/>
<path d="" fill="#89CFEF" transform="translate(0,0)"/>
<path d="" fill="#78B3D0" transform="translate(0,0)"/>
<path d="" fill="#88C7E9" transform="translate(0,0)"/>
<path d="" fill="#83C1E0" transform="translate(0,0)"/>
<path d="" fill="#7FBEDF" transform="translate(0,0)"/>
<path d="" fill="#80BDDE" transform="translate(0,0)"/>
<path d="" fill="#7AB2CF" transform="translate(0,0)"/>
<path d="" fill="#83C1E0" transform="translate(0,0)"/>
<path d="" fill="#6FA2B9" transform="translate(0,0)"/>
<path d="" fill="#7FBFE0" transform="translate(0,0)"/>
<path d="" fill="#7FBDDD" transform="translate(0,0)"/>
<path d="" fill="#85C8EB" transform="translate(0,0)"/>
<path d="" fill="#6494AB" transform="translate(0,0)"/>
<path d="" fill="#7EBADB" transform="translate(0,0)"/>
<path d="" fill="#608EA1" transform="translate(0,0)"/>
<path d="" fill="#82C2E2" transform="translate(0,0)"/>
<path d="" fill="#81C0E1" transform="translate(0,0)"/>
<path d="" fill="#83C3E5" transform="translate(0,0)"/>
<path d="" fill="#5C8699" transform="translate(0,0)"/>
<path d="" fill="#83C3E5" transform="translate(0,0)"/>
<path d="" fill="#77B0D1" transform="translate(0,0)"/>
<path d="" fill="#79B5D5" transform="translate(0,0)"/>
<path d="" fill="#547A8C" transform="translate(0,0)"/>
<path d="" fill="#7DBCDE" transform="translate(0,0)"/>
<path d="" fill="#507584" transform="translate(0,0)"/>
<path d="" fill="#7EBAD8" transform="translate(0,0)"/>
<path d="" fill="#4B6776" transform="translate(0,0)"/>
<path d="" fill="#476572" transform="translate(0,0)"/>
<path d="" fill="#74B0CD" transform="translate(0,0)"/>
<path d="" fill="#72A4BF" transform="translate(0,0)"/>
<path d="" fill="#45626F" transform="translate(0,0)"/>
<path d="" fill="#415E69" transform="translate(0,0)"/>
<path d="" fill="#405D68" transform="translate(0,0)"/>
<path d="" fill="#3E5A65" transform="translate(0,0)"/>
<path d="" fill="#5A7D90" transform="translate(0,0)"/>
<path d="" fill="#3E5A64" transform="translate(0,0)"/>
<path d="" fill="#405A65" transform="translate(0,0)"/>
<path d="" fill="#3F5964" transform="translate(0,0)"/>
<path d="" fill="#46616E" transform="translate(0,0)"/>
<path d="" fill="#405965" transform="translate(0,0)"/>
<path d="" fill="#537585" transform="translate(0,0)"/>
<path d="" fill="#405C67" transform="translate(0,0)"/>
<path d="" fill="#435E6A" transform="translate(0,0)"/>
<path d="" fill="#45606D" transform="translate(0,0)"/>
<path d="" fill="#45616E" transform="translate(0,0)"/>
<path d="" fill="#486674" transform="translate(0,0)"/>
</svg>
